<?xml version="1.0" standalone="no"?>
<!DOCTYPE svg PUBLIC "-//W3C//DTD SVG 20010904//EN"
 "http://www.w3.org/TR/2001/REC-SVG-20010904/DTD/svg10.dtd">
<svg version="1.1" xmlns="http://www.w3.org/2000/svg" viewBox="0 0 500 500" width="500" height="500">
  <g transform="translate(0.000000,380.000000) scale(0.100000,-0.100000)" stroke="none">
    
    <path d="M1252 3420 c-80 -29 -250 -111 -255 -124 -2 -6 7 -64 20 -129 14 -65 23 -119 22 -121 -2 -1 -43 -35 -91 -75 l-87 -72 -111 40 c-62 23 -117 41 -124 41 -16 0 -112 -134 -164 -230 l-41 -75 90 -91 91 -91 -26 -84 c-13 -46 -27 -96 -30 -110 -5 -22 -13 -28 -43 -33 -21 -4 -79 -16 -130 -27 l-91 -21 -7 -102 c-3 -55 -3 -139 2 -185 l8 -85 124 -26 c67 -15 127 -33 131 -40 4 -7 13 -40 20 -74 7 -33 20 -76 28 -94 l15 -34 -91 -91 -91 -92 40 -75 c38 -70 144 -226 161 -236 4 -3 60 15 124 40 l116 44 94 -81 c102 -87 102 -87 73 -166 -11 -29 -4 -33 -195 111 -8 5 -26 -25 -56 -94 -25 -57 -75 -169 -111 -250 l-66 -148 320 0 320 0 20 45 c19 43 41 57 54 35 12 -20 26 -9 101 83 42 50 80 96 84 101 5 4 60 0 123 -10 l115 -18 45 -115 44 -116 44 -3 c41 -3 286 24 314 34 7 3 16 29 20 57 23 193 27 206 49 212 11 4 60 22 108 42 l86 35 95 -76 c52 -42 100 -76 107 -76 25 0 280 204 280 224 0 6 -23 61 -51 123 l-51 112 33 40 c19 22 36 41 39 41 3 0 34 -69 69 -153 35 -83 78 -183 96 -222 17 -38 63 -143 101 -232 l69 -163 317 0 c175 0 318 2 318 3 0 2 -6 17 -14 33 -35 72 -133 299 -163 374 -13 36 -28 70 -32 75 -5 6 -22 44 -39 85 -52 127 -117 280 -166 390 -36 79 -227 528 -263 618 -4 10 -123 12 -566 10 -485 -3 -561 -5 -569 -18 -14 -26 -208 -438 -208 -444 0 -3 194 -6 430 -6 237 0 430 -3 430 -7 0 -21 -119 -179 -185 -246 -130 -131 -263 -207 -455 -259 -73 -19 -108 -23 -245 -22 -195 0 -277 18 -440 97 -329 160 -517 450 -519 802 -1 183 50 361 146 505 89 134 251 265 407 331 79 34 81 35 102 89 12 30 49 113 81 184 32 71 56 131 53 134 -4 5 -97 -7 -156 -20 -7 -2 -47 40 -90 92 -43 52 -84 96 -91 97 -7 1 -37 -7 -66 -17z" fill="#0F172A"/>
    
    <path d="M1782 3257 c-122 -284 -278 -646 -417 -962 -48 -110 -113 -261 -145 -335 -32 -74 -76 -175 -99 -224 l-41 -90 35 -50 c60 -87 146 -166 240 -221 90 -53 176 -95 193 -95 5 0 20 24 32 53 12 28 28 66 35 82 8 17 57 129 110 250 53 121 106 238 116 261 10 22 19 43 19 47 0 4 13 35 29 69 15 35 47 108 71 163 23 55 65 149 91 208 l49 108 0 434 0 435 280 0 280 0 0 -184 0 -185 26 -20 c25 -20 40 -21 210 -21 l184 0 0 -365 0 -365 60 0 60 0 0 403 c0 234 -4 408 -10 417 -5 8 -107 113 -227 232 l-217 218 -426 0 -425 0 -113 -263z m1166 -103 c6 3 14 1 18 -5 4 -8 3 -9 -4 -5 -7 4 -12 3 -12 -3 0 -5 5 -13 10 -16 29 -18 2 -26 -82 -23 l-93 3 -1 85 c0 47 1 89 4 94 2 4 37 -24 77 -64 40 -40 78 -70 83 -66z" fill="#2563EB"/>
    
    <path d="M2285 2773 c4 -21 8 -44 10 -50 3 -10 70 -13 289 -13 156 0 291 3 300 6 11 4 16 19 16 50 l0 44 -310 0 -311 0 6 -37z" fill="#FFFFFF"/>
    <path d="M2587 2593 l-308 -3 3 -48 3 -47 308 -2 307 -1 0 54 c0 30 -1 53 -2 52 -2 -2 -142 -4 -311 -5z" fill="#FFFFFF"/>
    <path d="M2284 2356 c-3 -8 -4 -29 -2 -48 l3 -33 308 -3 307 -2 0 50 0 50 -305 0 c-253 0 -307 -2 -311 -14z" fill="#FFFFFF"/>
  </g>
</svg>