<svg width="901" height="1094" viewBox="0 0 901 1094" fill="none" xmlns="http://www.w3.org/2000/svg">
<path opacity="0.2" d="M318.188 581.36C295.636 599.741 273.787 620.309 260.06 646.257C239.872 684.408 240.183 732.398 260.9 767.773C278.441 797.766 308.022 817.295 333.329 840.464C364.508 868.996 389.734 903.768 413.609 939.128C426.438 958.12 439.374 977.815 458.11 990.536C484.127 1008.19 519.202 1009.94 549.833 998.602C580.465 987.266 606.685 963.864 625.514 936.051C635.533 921.251 643.822 904.525 645.018 886.932C646.283 868.317 639.539 850.323 640.94 831.708C642.236 814.458 650.445 798.142 660.039 783.474C672.566 764.322 687.729 747.031 705.081 732.112C724.749 715.222 746.898 701.746 766.629 684.993C786.361 668.24 804.221 647.029 810.398 621.795C816.207 598.073 811.101 573.749 804.904 550.897C794.812 513.555 781.698 477.098 765.691 441.885C754.944 418.287 742.671 395.013 724.698 376.948C690.337 342.402 635.624 331.05 588.374 348.653C549.228 363.238 517.616 394.893 490.393 428.027C465.568 458.242 442.922 496.676 410.74 519.102C380.033 540.477 347.645 557.361 318.188 581.36Z" fill="#4CBE98"/>
<path opacity="0.2" d="M141.832 682.989C135.338 724.805 131.734 768.3 142.15 809.705C157.458 870.586 204.516 922.149 261.359 940.217C309.529 955.558 360.531 947.874 410.455 948.282C471.951 948.771 533.083 961.798 593.326 976.776C625.69 984.815 658.854 993.511 691.5 989.021C736.826 982.782 776.457 950.53 798.547 908.464C820.636 866.398 826.209 815.585 819.495 767.2C815.922 741.452 808.603 715.308 792.768 695.13C776.014 673.78 751.202 660.896 734.594 639.415C719.203 619.51 712.196 593.886 708.292 568.695C703.194 535.805 702.758 502.359 706.999 469.346C711.826 431.949 722.66 395.826 727.689 358.515C732.717 321.204 731.382 280.897 713.496 247.613C696.684 216.32 667.482 195.002 638.532 176.336C591.265 145.8 541.59 119.162 489.998 96.686C455.402 81.6428 419.471 68.4341 382.447 66.4038C311.656 62.5133 241.436 103.497 207.474 168.51C179.338 222.376 175.969 287.355 178.786 349.662C181.355 406.479 194.282 470.059 181.311 525.62C168.913 578.609 150.325 628.381 141.832 682.989Z" fill="#76FFC3"/>
<path d="M357.708 882.163C357.708 882.163 350.287 840.36 322.741 819.645C311.184 810.951 302.727 799.129 299.033 785.666C297.295 779.287 296.181 772.755 295.708 766.163" stroke="#535461" stroke-width="2"/>
<path d="M278.656 753.367C280.91 757.929 295.968 767.163 295.968 767.163C295.968 767.163 297.861 749.912 295.591 745.345C293.321 740.777 287.704 738.872 283.017 741.086C278.33 743.3 276.386 748.799 278.656 753.367Z" fill="#4CBE98"/>
<path d="M277.274 784.818C281.768 787.385 299.708 787.158 299.708 787.158C299.708 787.158 291.614 772.029 287.137 769.462C282.661 766.895 276.808 768.25 274.089 772.49C271.37 776.73 272.787 782.251 277.274 784.818Z" fill="#4CBE98"/>
<path d="M300.093 826.162C305.339 826.237 320.708 817.463 320.708 817.463C320.708 817.463 305.635 808.244 300.383 808.164C295.131 808.084 290.812 812.055 290.71 817.023C290.607 821.992 294.841 826.071 300.093 826.162Z" fill="#4CBE98"/>
<path d="M324.556 855.07C329.777 855.991 346.708 849.774 346.708 849.774C346.708 849.774 333.327 838.221 328.112 837.316C322.897 836.411 317.854 839.606 316.875 844.53C315.895 849.453 319.33 854.154 324.556 855.07Z" fill="#4CBE98"/>
<path d="M318.134 779.138C316.336 783.773 302.153 794.163 302.153 794.163C302.153 794.163 298.397 777.683 300.195 773.048C301.993 768.413 307.467 766.019 312.415 767.7C317.364 769.381 319.932 774.508 318.134 779.138Z" fill="#4CBE98"/>
<path d="M346.748 812.982C343.553 817.03 326.708 823.163 326.708 823.163C326.708 823.163 328.42 805.844 331.592 801.801C334.916 797.734 340.738 796.971 344.956 800.049C346.952 801.457 348.282 803.656 348.622 806.113C348.962 808.57 348.283 811.061 346.748 812.982V812.982Z" fill="#4CBE98"/>
<path d="M369.589 849.251C367.076 853.627 351.099 862.163 351.099 862.163C351.099 862.163 349.695 845.335 352.208 840.959C354.721 836.584 360.646 834.895 365.449 837.184C370.252 839.474 372.096 844.876 369.589 849.251Z" fill="#4CBE98"/>
<path opacity="0.25" d="M278.656 753.367C280.91 757.929 295.968 767.163 295.968 767.163C295.968 767.163 297.861 749.912 295.591 745.345C293.321 740.777 287.704 738.872 283.017 741.086C278.33 743.3 276.386 748.799 278.656 753.367Z" fill="black"/>
<path opacity="0.25" d="M277.274 784.818C281.768 787.385 299.708 787.158 299.708 787.158C299.708 787.158 291.614 772.029 287.137 769.462C282.661 766.895 276.808 768.25 274.089 772.49C271.37 776.73 272.787 782.251 277.274 784.818Z" fill="black"/>
<path opacity="0.25" d="M300.093 826.162C305.339 826.237 320.708 817.463 320.708 817.463C320.708 817.463 305.635 808.244 300.383 808.164C295.131 808.084 290.812 812.055 290.71 817.023C290.607 821.992 294.841 826.071 300.093 826.162Z" fill="black"/>
<path opacity="0.25" d="M324.556 855.07C329.777 855.991 346.708 849.774 346.708 849.774C346.708 849.774 333.327 838.221 328.112 837.316C322.897 836.411 317.854 839.606 316.875 844.53C315.895 849.453 319.33 854.154 324.556 855.07Z" fill="black"/>
<path opacity="0.25" d="M318.134 779.138C316.336 783.773 302.153 794.163 302.153 794.163C302.153 794.163 298.397 777.683 300.195 773.048C301.993 768.413 307.467 766.019 312.415 767.7C317.364 769.381 319.932 774.508 318.134 779.138Z" fill="black"/>
<path opacity="0.25" d="M346.748 812.982C343.553 817.03 326.708 823.163 326.708 823.163C326.708 823.163 328.42 805.844 331.592 801.801C334.916 797.734 340.738 796.971 344.956 800.049C346.952 801.457 348.282 803.656 348.622 806.113C348.962 808.57 348.283 811.061 346.748 812.982V812.982Z" fill="black"/>
<path opacity="0.25" d="M369.589 849.251C367.076 853.627 351.099 862.163 351.099 862.163C351.099 862.163 349.695 845.335 352.208 840.959C354.721 836.584 360.646 834.895 365.449 837.184C370.252 839.474 372.096 844.876 369.589 849.251Z" fill="black"/>
<path d="M356.832 881.163C356.832 881.163 368.312 840.005 351.758 810.502C344.812 798.125 342.132 784.062 344.619 770.308C345.813 763.769 347.65 757.357 350.104 751.163" stroke="#535461" stroke-width="2"/>
<path d="M340.714 733.352C340.896 738.25 350.912 752.163 350.912 752.163C350.912 752.163 359.887 737.642 359.705 732.738C359.523 727.834 355.127 723.999 349.883 724.168C344.639 724.337 340.526 728.447 340.714 733.352Z" fill="#4CBE98"/>
<path d="M325.393 761.372C328.368 765.461 344.708 772.163 344.708 772.163C344.708 772.163 343.806 755.128 340.831 751.033C337.71 746.918 331.998 745.942 327.725 748.793C325.702 750.085 324.299 752.177 323.857 754.565C323.414 756.952 323.971 759.419 325.393 761.372Z" fill="#4CBE98"/>
<path d="M328.21 808.252C332.961 810.325 350.708 808.212 350.708 808.212C350.708 808.212 340.905 794.062 336.153 791.989C331.402 789.917 325.777 791.876 323.583 796.367C321.389 800.859 323.464 806.179 328.21 808.252Z" fill="#4CBE98"/>
<path d="M337.928 843.597C342.36 846.415 360.708 847.163 360.708 847.163C360.708 847.163 353.383 831.58 348.957 828.766C344.533 825.943 338.636 826.938 335.43 831.049C333.963 833.006 333.398 835.476 333.872 837.859C334.347 840.243 335.818 842.324 337.928 843.597V843.597Z" fill="#4CBE98"/>
<path d="M365.029 772.413C361.341 776 343.708 780.163 343.708 780.163C343.708 780.163 347.448 763.515 351.13 759.929C354.909 756.34 360.836 756.23 364.747 759.678C366.579 761.277 367.652 763.564 367.706 765.984C367.76 768.404 366.789 770.735 365.029 772.413Z" fill="#4CBE98"/>
<path d="M376.669 813.501C371.976 815.956 353.708 814.966 353.708 814.966C353.708 814.966 362.659 799.733 367.353 797.295C372.046 794.858 377.94 796.481 380.51 800.957C383.08 805.433 381.386 811.046 376.669 813.501Z" fill="#4CBE98"/>
<path d="M382.054 855.168C377.865 858.251 359.708 860.163 359.708 860.163C359.708 860.163 365.826 844.194 370.015 841.111C374.238 838.033 380.161 838.665 383.613 842.561C385.203 844.399 385.94 846.805 385.644 849.2C385.348 851.594 384.046 853.758 382.054 855.168Z" fill="#4CBE98"/>
<path fill-rule="evenodd" clip-rule="evenodd" d="M827.024 635.839C827.752 637.499 829.022 640.396 828.775 641.074C828.636 641.453 829.057 642.346 829.545 643.381C830.266 644.911 831.133 646.751 830.549 647.692C829.77 649.069 829.08 650.494 828.483 651.96C828.483 651.96 824.441 659.643 822.38 661.099C820.32 662.554 810.869 674.764 810.869 674.764C810.869 674.764 800.731 686.383 800.731 689.97C800.731 689.97 800.158 689.019 799.214 687.592L800.725 713.203C800.725 713.203 797.204 716.188 796.432 716.532C792.825 719.007 786.723 715.082 785.779 714.309C785.281 713.896 781.903 714.005 778.909 714.194C779.573 728.054 776.763 730.713 776.763 730.713L776.425 742.745C776.425 742.745 776.86 761.114 775.566 764.013C774.273 766.912 774.273 778.617 774.273 778.617C774.273 778.617 775.131 784.164 774.187 785.361C773.242 786.559 773.935 791.01 774.622 793.302C775.309 795.594 774.702 801.324 774.702 801.324L774.53 833.61C774.53 833.61 773.591 841.975 772.384 843.178C771.678 843.895 771.415 844.939 771.697 845.905C771.697 845.905 770.666 850.684 770.924 851.543C771.181 852.403 771.702 854.362 769.722 855.302C767.741 856.241 768.256 859.232 768.256 859.232C768.047 859.183 767.834 859.145 767.621 859.118C767.678 859.467 767.747 859.828 767.827 860.172C767.925 860.812 768.16 861.423 768.514 861.965C769.378 862.905 769.893 867.087 769.893 867.087C769.893 867.087 772.985 873.235 772.641 874.605C772.389 875.624 772.08 877.458 771.937 878.323C771.868 878.615 771.868 878.793 771.868 878.793C771.868 878.793 770.151 882.551 760.614 883.915C751.077 885.279 751.077 880.752 751.077 880.752C751.077 880.752 751.112 880.265 751.175 879.538C751.203 879.242 751.233 878.906 751.267 878.546C751.457 876.471 751.721 873.59 751.936 872.897C752.251 871.786 751.678 866.915 751.678 866.915L751.575 861.828V860.814C750.688 860.991 750.156 861.111 750.156 861.111C748.706 858.137 747.442 855.076 746.372 851.944C745.908 850.663 746.02 849.243 746.678 848.05C747.336 846.857 748.476 846.006 749.807 845.716C751.615 845.441 748.519 842.278 748.519 842.278C748.519 842.278 748.862 841.849 748.003 838.778C747.17 835.799 748.115 828.314 748.407 825.995L748.433 825.795C748.69 823.743 749.978 813.837 749.978 813.837C749.978 813.837 749.291 801.278 749.807 800.768C750.322 800.258 752.051 795.302 751.186 793.68C750.322 792.059 748.948 781.385 748.948 780.783C748.948 780.182 747.832 766.345 747.832 766.345C747.832 766.345 746.813 756.748 747.07 754.697C747.328 752.645 746.383 745.042 746.383 745.042C746.383 738.7 742.691 731.864 742.691 731.864L742.6 732.111L734.585 752.966C734.585 752.966 733.326 759.286 732.181 762.873C731.468 765.322 730.9 767.811 730.481 770.327L730.407 770.779C730.396 770.841 730.384 770.9 730.372 770.955C730.348 771.073 730.326 771.176 730.326 771.266L730.275 771.604C730.275 771.604 730.876 776.137 729.931 777.586C728.987 779.036 727.957 783.39 727.957 784.588C727.957 785.785 728.037 790.397 728.037 790.397C728.037 790.397 728.415 799.536 727.464 800.562C726.514 801.587 727.029 802.441 727.029 802.441C727.029 802.441 728.54 809.316 727.854 811.11C727.167 812.903 727.682 817.086 727.682 817.086C727.682 817.086 726.314 830.327 726.136 831.008C725.959 831.69 725.008 836.996 726.045 837.42C727.081 837.844 729.05 840.405 729.05 840.405C729.05 840.405 729.485 851.583 727.939 852.437C726.394 853.291 727.247 857.651 727.247 857.651L726.588 857.771C726.651 858.086 726.72 858.424 726.777 858.762C727.021 859.767 727.123 860.801 727.081 861.833C726.973 862.597 727.191 863.37 727.682 863.965L728.065 867.454L728.197 868.669C728.197 868.669 720.984 873.361 717.372 872.679C713.76 871.998 710.062 873.877 710.062 873.877C707.571 876.579 704.438 878.607 700.955 879.773C695.11 881.721 686.953 880.964 682.31 879.429C680.112 878.701 679.94 877.75 680.999 876.604C682.115 875.379 684.6 873.911 687.521 872.185C687.674 872.094 687.828 872.003 687.983 871.912C693.914 868.411 700.268 861.49 700.268 861.49C700.268 861.49 700.376 859.782 701.413 859.014C702.04 858.47 702.615 857.867 703.13 857.215L703.628 856.642L703.055 856.556L703.914 853.749C703.863 853.846 703.296 854.757 702.884 851.262C702.46 847.59 706.066 849.383 706.066 849.383C706.066 849.383 708.9 850.076 704.349 845.63C699.798 841.184 702.002 836.658 702.288 836.658C702.575 836.658 703.147 830.086 703.147 830.086C703.147 830.086 703.914 826.155 703.319 823.079C702.723 820.002 702.208 810.439 702.208 810.439C702.208 810.439 702.632 803.186 701.859 800.533C701.151 798.103 702.173 793.888 702.547 792.344C702.581 792.202 702.61 792.083 702.632 791.99C702.889 790.879 701.859 780.714 701.859 780.714C701.859 780.714 702.723 775.942 702.208 772.435C701.693 768.929 702.723 756.032 702.723 756.032L704.321 741.215C704.321 741.215 705.437 736.603 705.265 734.723C705.093 732.844 706.553 726.267 706.553 726.267C706.467 724.866 706.702 723.465 707.24 722.17C707.586 721.318 707.819 720.424 707.933 719.511C705.454 717.672 703.977 714.395 703.977 714.395C703.787 714.07 703.613 713.735 703.456 713.392L704.83 707.588C704.83 707.588 704.916 699.555 705.775 698.02C706.633 696.484 707.148 692.044 707.148 692.044C707.148 692.044 708.728 682.258 709.003 680.149C708.702 680.095 708.394 680.095 708.093 680.149C708.093 680.149 708.173 679.748 708.31 679.078C708.065 679.06 707.819 679.076 707.578 679.124C707.578 679.124 711.276 660.572 713.251 656.4C715.226 652.229 714.882 640.77 714.882 640.77C714.882 640.77 711.012 641.968 710.841 642.993C710.669 644.019 705.689 650.934 705.689 650.934C705.689 650.934 704.55 655.123 699.392 657.856C694.234 660.589 688.567 657.34 687.708 656.234C686.936 655.232 671.909 648.637 668.898 647.325L668.371 647.096L668.406 646.918V646.826L667.833 646.586L668.406 646.763C668.486 646.397 668.646 645.738 668.887 644.878C668.913 644.848 668.915 644.83 668.917 644.802C668.918 644.781 668.92 644.756 668.932 644.718C668.945 644.676 668.954 644.645 668.963 644.61C668.974 644.567 668.987 644.519 669.013 644.437C669.025 644.396 669.038 644.355 669.051 644.312C669.086 644.2 669.122 644.084 669.156 643.967L669.207 643.795C669.226 643.735 669.247 643.675 669.267 643.615C669.301 643.513 669.335 643.41 669.367 643.303C669.396 643.28 669.396 643.228 669.396 643.228C669.654 642.438 669.968 641.572 670.341 640.679L668.131 637.814L667.868 637.619L657.592 628.011C655.763 626.304 654.729 623.91 654.741 621.408C654.753 618.905 655.81 616.521 657.655 614.833C658.63 613.934 659.064 615.105 659.21 615.499C659.229 615.549 659.243 615.587 659.252 615.606C665.698 616.397 676.672 626.71 676.672 626.71L678.023 628.211L678.526 628.784C678.638 628.323 678.59 627.838 678.389 627.409C678.08 626.951 680.232 628.956 681.251 629.918C681.25 629.907 681.25 629.896 681.251 629.884C681.262 629.908 681.276 629.931 681.291 629.953L681.766 630.4C683.312 633.133 690.101 634.668 690.101 634.668L693.021 632.875C693.278 629.546 698.007 625.616 698.007 625.616C698.007 625.616 699.403 624.074 700.153 620.745C700.903 617.417 703.765 617.841 703.765 617.841L704.109 612.976C704.109 612.976 706.656 611.601 706.399 608.874C706.141 606.147 709.146 600.852 709.146 600.852C709.146 600.852 710.497 600.343 710.778 594.957C711.058 589.571 713.64 589.227 713.64 589.227L720.944 588.803C721.545 586.752 737.184 584.277 737.184 584.277C737.184 584.277 739.932 583.246 741.392 581.028C742.851 578.811 744.403 579.579 744.403 579.579L744.632 579.802C744.623 579.726 744.615 579.661 744.606 579.591C744.596 579.519 744.586 579.44 744.574 579.338C744.566 579.262 744.553 579.188 744.541 579.116C744.52 578.996 744.5 578.879 744.5 578.765C737.606 575.337 733.241 568.302 733.229 560.597V560.304V559.783C732.675 560.043 732.101 560.256 731.511 560.419C731.368 560.459 731.219 560.494 731.076 560.522C730.501 560.644 729.912 560.691 729.325 560.66C729.264 560.655 729.204 560.647 729.145 560.638C729.059 560.626 728.974 560.614 728.89 560.614C728.636 560.578 728.385 560.523 728.14 560.448L728.02 560.419C728.105 560.144 728.203 559.88 728.3 559.617C729.146 557.298 730.466 555.18 732.175 553.4C732.573 553.051 732.898 552.627 733.131 552.151C733.287 551.731 733.313 551.274 733.206 550.839C733.012 550.152 732.746 549.487 732.41 548.857L732.341 548.696L732.256 548.502C732.244 548.473 732.233 548.444 732.222 548.415C732.182 548.314 732.142 548.215 732.107 548.112C732.104 548.089 732.104 548.066 732.107 548.043C732.1 548.022 732.092 547.999 732.084 547.975C732.045 547.86 731.998 547.721 731.998 547.688V547.568C731.965 547.426 731.94 547.283 731.924 547.138C731.912 546.985 731.912 546.832 731.924 546.68C731.924 546.661 731.922 546.644 731.921 546.628C731.918 546.594 731.916 546.56 731.924 546.502C731.935 546.416 731.952 546.319 731.969 546.244C731.983 546.184 732.001 546.12 732.016 546.065C732.02 546.051 732.023 546.039 732.027 546.026C732.033 546.003 732.043 545.98 732.052 545.958C732.068 545.92 732.084 545.883 732.084 545.843C732.411 544.992 732.958 544.242 733.669 543.672C734.114 543.302 734.593 542.983 735.072 542.663C735.685 542.254 736.298 541.846 736.835 541.334C737.921 540.302 738.642 538.92 739.361 537.541C740.154 536.02 740.945 534.504 742.222 533.467C744.334 531.748 747.242 531.777 749.87 532.144C750.239 532.195 750.611 532.252 750.984 532.308C753.258 532.653 755.568 533.004 757.752 532.31C758.754 531.989 759.68 531.459 760.607 530.928C761.431 530.456 762.257 529.984 763.139 529.657C767.054 528.196 771.817 530.138 773.838 534.023C774.52 535.343 774.899 536.788 775.278 538.233C775.57 539.346 775.862 540.46 776.293 541.517C776.617 542.314 777.016 543.07 777.414 543.827C777.819 544.594 778.223 545.362 778.549 546.17C779.295 548.084 779.587 550.145 779.402 552.191C779.373 552.552 779.321 552.908 779.264 553.263C779.258 553.307 779.247 553.351 779.236 553.395C779.219 553.466 779.201 553.536 779.201 553.607C779.15 553.864 779.093 554.122 779.03 554.374L778.944 554.695C778.846 555.045 778.726 555.417 778.606 555.732C778.486 556.047 778.354 556.363 778.211 556.666C777.896 557.349 777.54 558.015 777.184 558.68C776.424 560.103 775.666 561.521 775.314 563.083C775.193 563.68 775.103 564.282 775.045 564.888C775.039 564.935 775.03 564.983 775.022 565.03C775.002 565.144 774.982 565.258 774.982 565.375C774.982 565.398 774.984 565.414 774.986 565.431C774.99 565.465 774.994 565.499 774.982 565.587C774.965 565.719 774.937 565.908 774.925 565.977C774.92 566.008 774.916 566.029 774.911 566.054C774.905 566.085 774.898 566.123 774.885 566.194C774.879 566.229 774.874 566.268 774.868 566.307C774.852 566.419 774.835 566.537 774.805 566.584C774.765 566.647 774.765 566.716 774.765 566.779C774.719 566.979 774.662 567.168 774.599 567.352C774.3 568.291 773.644 569.075 772.773 569.535C772.748 569.544 772.723 569.557 772.698 569.57C772.649 569.595 772.599 569.621 772.55 569.621C772.364 569.678 772.171 569.709 771.977 569.712C771.964 569.739 771.951 569.766 771.938 569.794C771.871 569.934 771.802 570.077 771.725 570.217C770.862 571.818 769.788 573.296 768.531 574.611C768.733 575.379 768.993 576.13 769.31 576.857L769.344 576.92C769.366 576.956 769.399 577.01 769.441 577.079C769.925 577.872 771.625 580.656 772.578 581.383L776.265 584.202C776.265 584.202 779.963 585.921 781.251 585.921C782.539 585.921 789.499 587.715 790.364 588.654C790.775 588.983 791.291 589.154 791.818 589.136C792.425 589.097 793.029 589.022 793.627 588.912L793.97 589.021C794.377 588.964 794.657 588.912 794.657 588.912C794.657 588.912 797.485 589.875 799.981 590.448C802.477 591.021 803.679 595.129 803.164 596.75C802.744 598.391 803.201 600.133 804.371 601.357C805.402 602.382 805.917 605.711 805.917 605.711C807.179 606.123 808.229 607.013 808.842 608.192C809.438 609.487 809.478 611.859 809.478 613.188C809.443 613.778 809.443 614.168 809.443 614.168C809.455 614.168 814.601 614.26 815.116 618.528C815.631 622.797 820.354 624.762 820.354 624.762C820.354 624.762 823.88 628.263 823.88 629.884C823.88 631.043 825.241 632.858 826.016 633.893C826.326 634.306 826.542 634.595 826.542 634.668C826.542 634.74 826.742 635.197 827.024 635.839ZM798.521 657.483C798.584 656.188 804.022 650.293 806.598 650.035C806.598 650.035 807.01 646.563 805.894 646.477C804.778 646.391 803.833 643.658 803.833 643.658C803.833 643.658 798.435 637.338 796.718 631.981L796.626 632.113C796.626 632.113 796.804 639.028 796.283 640.564C795.985 641.458 796.644 650.654 797.25 658.2C797.273 658.5 797.297 658.799 797.321 659.095C797.34 659.323 797.359 659.55 797.376 659.775C797.909 659.065 798.481 658.159 798.521 657.483Z" fill="url(#paint0_linear_536_748)"/>
<path d="M668.741 648.074C668.741 648.074 671.936 631.259 682.223 631.171L689.741 646.686L684.729 650.154C684.729 650.154 673.841 650.5 668.741 648.074Z" fill="#65617D"/>
<path opacity="0.1" d="M689.741 646.682L684.729 650.154C684.729 650.154 677.065 650.4 671.586 649.045C670.609 648.813 669.656 648.487 668.741 648.072C668.741 648.072 668.741 647.978 668.8 647.802C668.8 647.802 668.8 647.761 668.8 647.738C669.271 645.625 669.922 643.558 670.745 641.557C671.066 640.8 671.422 640.02 671.808 639.24C673.315 636.308 675.43 633.482 678.327 632.068C679.398 631.541 680.564 631.235 681.756 631.171H682.06H682.212L682.375 631.517L684.916 636.76L689.741 646.682Z" fill="black"/>
<path d="M773.518 715.409C773.518 715.409 784.214 714.39 785.151 715.155C786.087 715.921 792.164 719.833 795.76 717.365C799.357 714.897 796.957 706.302 796.957 705.962C796.957 705.623 796.616 693.45 796.616 693.45L790.198 684.855L782.162 669.793L765.741 668.171L766.169 692.092L766.082 704.346L773.518 715.409Z" fill="#65617D"/>
<path opacity="0.1" d="M773.518 715.409C773.518 715.409 784.214 714.39 785.151 715.155C786.087 715.921 792.164 719.833 795.76 717.365C799.357 714.897 796.957 706.302 796.957 705.962C796.957 705.623 796.616 693.45 796.616 693.45L790.198 684.855L782.162 669.793L765.741 668.171L766.169 692.092L766.082 704.346L773.518 715.409Z" fill="black"/>
<path d="M679.741 631.706C679.741 631.706 678.899 642.006 672.5 642.171C672.5 642.171 670.684 641.076 668.242 639.25C662.618 635.033 653.697 626.924 656.162 619.38C659.697 608.578 676.878 628.51 676.878 628.51L678.193 629.994L679.741 631.706Z" fill="#FBBEBE"/>
<path opacity="0.1" d="M679.741 631.858C679.741 631.858 678.901 642.008 672.524 642.171C672.524 642.171 670.714 641.091 668.28 639.292L667.741 638.6C668.824 639.16 670.017 639.478 671.236 639.534C673.2 639.611 675.008 638.476 675.775 636.683C676.446 635.378 677.035 634.033 677.54 632.657C677.85 631.854 678.071 631.021 678.198 630.171L679.741 631.858Z" fill="black"/>
<path d="M677.306 650.171L675.898 648.334L671.156 642.136L668.741 638.976C669.802 639.539 670.973 639.858 672.169 639.911C673.744 639.95 675.508 639.347 676.621 637.06C677.278 635.75 677.856 634.401 678.352 633.02C679.131 630.766 679.12 629.639 678.842 629.228C678.563 628.817 680.589 630.738 681.563 631.673L681.596 631.707L682.053 632.141L682.22 632.479L684.607 637.308C684.607 637.308 684.607 637.375 684.607 637.511C684.841 639.06 685.648 648.791 677.306 650.171Z" fill="#E7EFFD"/>
<path d="M727.741 867.823C727.741 867.823 720.647 872.538 717.103 871.877C713.558 871.217 709.923 873.082 709.923 873.082C707.479 875.79 704.397 877.825 700.968 878.996C695.26 880.965 687.213 880.189 682.652 878.648C680.495 877.919 680.318 876.98 681.357 875.816C682.498 874.519 685.158 872.961 688.206 871.107C694.033 867.597 700.277 860.681 700.277 860.681C700.277 860.681 700.363 858.944 701.379 858.202C702.004 857.656 702.577 857.051 703.091 856.395C703.998 855.306 704.849 854.171 704.849 854.171L725.715 854.785C725.715 854.785 726.069 856.308 726.349 857.866C726.587 858.877 726.685 859.916 726.64 860.954C726.531 861.715 726.738 862.489 727.21 863.091L727.587 866.566L727.741 867.823Z" fill="#65617D"/>
<path d="M771.715 873.778C771.467 874.781 771.151 876.577 771.032 877.422L770.959 877.886C770.959 877.886 769.264 881.575 760.017 882.918C750.769 884.262 750.741 879.813 750.741 879.813C750.741 879.813 750.775 879.337 750.832 878.617C750.995 876.657 751.329 872.9 751.577 872.101C751.905 871.013 751.323 866.23 751.323 866.23L751.227 861.237L751.154 857.769L766.535 856.171C766.63 857.325 766.796 858.472 767.033 859.605C767.127 860.235 767.356 860.836 767.705 861.368C768.541 862.291 769.038 866.4 769.038 866.4C769.038 866.4 772.049 872.435 771.715 873.778Z" fill="#65617D"/>
<path opacity="0.1" d="M726.117 854.842C726.117 854.842 726.466 856.325 726.741 857.841C724.52 858.252 714.817 859.938 712.394 858.76C709.644 857.424 703.741 856.674 703.741 856.674L703.837 856.336C704.731 855.276 705.568 854.171 705.568 854.171L726.117 854.842Z" fill="black"/>
<path opacity="0.1" d="M766.741 859.56C762.817 858.906 754.228 860.489 750.815 861.171L750.741 857.748L766.229 856.171C766.328 857.31 766.499 858.442 766.741 859.56V859.56Z" fill="black"/>
<path d="M775.508 731.593L775.172 743.558C775.172 743.558 775.593 761.804 774.329 764.689C773.065 767.574 773.065 779.2 773.065 779.2C773.065 779.2 773.908 784.712 772.98 785.9C772.052 787.087 772.729 791.498 773.401 793.792C774.073 796.087 773.487 801.771 773.487 801.771L773.316 833.846C773.316 833.846 772.393 842.157 771.209 843.35C770.518 844.067 770.261 845.103 770.537 846.063C770.537 846.063 769.53 850.812 769.78 851.667C770.031 852.522 770.537 854.466 768.602 855.395C766.666 856.324 767.167 859.301 767.167 859.301C762.539 858.194 749.399 861.171 749.399 861.171C747.979 858.222 746.741 855.188 745.692 852.086C745.235 850.815 745.342 849.408 745.987 848.223C746.633 847.038 747.753 846.19 749.063 845.897C750.828 845.639 747.799 842.501 747.799 842.501C747.799 842.501 748.135 842.077 747.292 839.025C746.45 835.974 747.457 828.127 747.714 826.119C747.97 824.112 749.228 814.241 749.228 814.241C749.228 814.241 748.556 801.771 749.063 801.26C749.57 800.75 751.249 795.829 750.412 794.217C749.575 792.605 748.215 781.999 748.215 781.403C748.215 780.806 747.127 767.063 747.127 767.063C747.127 767.063 746.114 757.473 746.37 755.437C746.626 753.401 745.692 745.852 745.692 745.852C745.692 739.543 742.072 732.78 742.072 732.78L741.981 733.027L734.175 753.745C734.175 753.745 732.911 760.02 731.818 763.582C731.127 766.004 730.578 768.465 730.173 770.952L730.099 771.405C730.099 771.595 730.042 771.755 730.025 771.881L729.974 772.226V772.226C729.974 772.226 730.543 776.722 729.632 778.168C728.721 779.613 727.696 783.938 727.696 785.125C727.696 786.313 727.782 790.896 727.782 790.896C727.782 790.896 728.118 799.976 727.212 800.996C726.307 802.017 726.785 802.861 726.785 802.861C726.785 802.861 728.3 809.744 727.628 811.516C726.956 813.288 727.463 817.453 727.463 817.453C727.463 817.453 726.114 830.611 725.949 831.287C725.783 831.964 724.85 837.23 725.863 837.654C726.877 838.079 728.807 840.62 728.807 840.62C728.807 840.62 729.234 851.741 727.713 852.585C726.193 853.428 727.036 857.747 727.036 857.747C727.036 857.747 714.83 860.121 712.052 858.762C709.273 857.403 703.29 856.64 703.29 856.64L704.127 853.852C704.075 853.95 703.517 854.856 703.119 851.38C702.703 847.732 706.239 849.51 706.239 849.51C706.239 849.51 709.017 850.193 704.531 845.782C700.045 841.371 702.254 836.868 702.51 836.868C702.766 836.868 703.358 830.341 703.358 830.341C703.358 830.341 704.115 826.435 703.523 823.378C702.931 820.321 702.43 810.816 702.43 810.816C702.43 810.816 702.851 803.606 702.094 800.979C701.337 798.352 702.595 793.592 702.851 792.49C703.108 791.389 702.066 781.317 702.066 781.317C702.066 781.317 702.908 776.568 702.402 773.092C701.895 769.616 702.908 756.796 702.908 756.796L704.423 742.032C704.423 742.032 705.516 737.443 705.351 735.579C705.186 733.715 706.62 727.182 706.62 727.182C706.534 725.791 706.764 724.398 707.292 723.11C708.135 721.389 708.471 715.814 708.471 715.814L716.561 697.143L720.546 680.682L774.022 680.171C774.022 680.171 774.221 681.599 774.545 684.186C774.87 686.773 775.325 690.616 775.832 695.36C776.299 699.667 776.811 704.732 777.307 710.37C778.924 728.369 775.508 731.593 775.508 731.593Z" fill="#3F3D56"/>
<path d="M771.741 582.899L759.039 596.171C759.039 596.171 742.741 589.785 744.458 587.605C745.119 586.759 745.038 584.091 744.632 581.15C744.052 576.495 742.741 571.142 742.741 571.142C742.741 571.142 771.225 566.6 768.841 571.306C767.965 573.009 768.116 575.03 768.661 576.887C769.351 579.04 770.391 581.07 771.741 582.899V582.899Z" fill="#FBBEBE"/>
<path opacity="0.1" d="M768.599 571.301C767.73 572.997 767.316 573.178 767.857 575.026C764.166 578.909 759.468 583.171 753.626 583.171C750.499 583.176 747.415 582.466 744.616 581.097C744.041 576.462 742.741 571.132 742.741 571.132C742.741 571.132 770.979 566.61 768.599 571.301Z" fill="black"/>
<path d="M773.741 562.409C773.557 573.377 764.657 582.171 753.741 582.171C742.825 582.171 733.925 573.377 733.741 562.409C733.741 562.312 733.741 562.215 733.741 562.124C733.82 551.026 742.836 542.093 753.88 542.172C764.924 542.25 773.814 551.311 773.736 562.409H773.741Z" fill="#FBBEBE"/>
<path opacity="0.1" d="M776.741 694.864C774.059 694.864 765.119 694.958 755.126 695.106H755.005L751.707 695.161H751.604C739.757 695.342 728.078 693.137 723.398 693.554C713.439 694.442 726.978 684.78 726.978 684.78C734.402 686.499 742.04 687.237 749.675 686.973L752.553 686.831C761.602 686.343 770.703 685.531 775.458 684.171C775.774 686.683 776.229 690.329 776.741 694.864Z" fill="black"/>
<path d="M776.741 694.864C774.059 694.864 765.119 694.958 755.126 695.106H755.005L751.707 695.161H751.604C739.757 695.342 728.078 693.136 723.398 693.553C713.439 694.447 726.978 684.775 726.978 684.775C734.402 686.494 742.04 687.233 749.675 686.969L752.553 686.827C761.602 686.338 770.703 685.526 775.458 684.171C775.774 686.684 776.229 690.316 776.741 694.864Z" fill="#5F5D7E"/>
<path opacity="0.1" d="M748.321 588.207L732.752 595.472L720.741 688.171C720.741 688.171 727.845 684.964 731.912 686.99C735.978 689.016 748.498 687.161 748.498 687.161C748.498 687.161 757.65 686.653 758.994 687.669C760.338 688.685 776.244 683.423 776.244 683.423C776.244 683.423 779.104 677.008 776.919 676.004C774.734 674.999 777.617 665.041 777.617 665.041L776.244 598.172L773.533 589.56L766.258 585.171L758.822 591.078L755.27 591.586L748.321 588.207Z" fill="black"/>
<path d="M748.315 587.213L732.75 594.472L720.741 687.171C720.741 687.171 727.843 683.964 731.909 685.99C735.975 688.016 748.493 686.155 748.493 686.155C748.493 686.155 757.642 685.653 758.986 686.663C760.33 687.673 776.244 682.44 776.244 682.44C776.244 682.44 779.103 676.026 776.919 675.022C774.735 674.017 777.605 664.031 777.605 664.031L776.233 597.171L773.522 588.565L766.248 584.171L758.814 590.083L755.263 590.591L748.315 587.213Z" fill="#E7EFFD"/>
<path opacity="0.1" d="M747.85 591.567C747.85 591.567 752.334 596.922 752.254 598.031C752.174 599.14 751.997 601.771 751.997 601.771L748.611 608.665C748.611 608.665 746.752 617.249 746.752 619.036C746.752 620.822 743.789 636.271 743.789 636.271L740.226 660.074L735.741 691.271L740.317 699.171L745.728 694.575L752.924 638.983L754.445 628.021C754.445 628.021 756.052 608.303 756.052 606.264C756.052 604.224 755.126 598.87 755.126 598.87C755.126 598.87 756.224 593.768 760.794 592.55C765.364 591.332 760.457 592.291 760.457 592.291L757.831 590.171L755.543 591.102C755.543 591.102 749.206 589.189 747.85 591.567Z" fill="black"/>
<path d="M746.836 591.533C746.836 591.533 751.325 596.89 751.239 597.993C751.154 599.097 750.982 601.735 750.982 601.735L747.602 608.632C747.602 608.632 745.738 617.219 745.738 619.006C745.738 620.793 742.776 636.248 742.776 636.248L739.225 660.054L734.741 691.263L739.316 699.171L744.732 694.573L751.92 638.967L753.447 628.006C753.447 628.006 755.054 608.281 755.054 606.241C755.054 604.201 754.127 598.844 754.127 598.844C754.127 598.844 755.225 593.74 759.794 592.551C764.364 591.361 759.457 592.298 759.457 592.298L756.832 590.171L754.545 591.108C754.545 591.108 748.191 589.148 746.836 591.533Z" fill="#4CBE98"/>
<path opacity="0.1" d="M744.076 582.171C744.076 582.171 743.405 582.684 743.242 586.094C743.079 589.504 740.741 597.171 740.741 597.171C740.741 597.171 749.41 591.036 753.741 591.716L744.076 582.171Z" fill="black"/>
<path d="M744.076 581.171C744.076 581.171 743.405 581.678 743.242 585.09C743.079 588.501 740.741 596.171 740.741 596.171C740.741 596.171 749.41 590.034 753.741 590.72L744.076 581.171Z" fill="#E7EFFD"/>
<path opacity="0.1" d="M768.42 579.171L754.741 591.398C754.741 591.398 766.245 598.361 767.744 600.06C769.243 601.759 770.741 583.413 770.741 583.413L768.42 579.171Z" fill="black"/>
<path d="M768.404 578.171L754.741 590.4C754.741 590.4 766.236 597.361 767.745 599.06C769.254 600.759 770.741 582.418 770.741 582.418L768.404 578.171Z" fill="#E7EFFD"/>
<path opacity="0.1" d="M744.478 582.298C744.478 582.298 742.941 581.537 741.491 583.741C740.423 585.177 738.973 586.291 737.303 586.957C737.303 586.957 721.744 589.412 721.126 591.444L713.858 591.868C713.858 591.868 711.292 592.205 711.038 597.54C710.784 602.874 709.415 603.383 709.415 603.383C709.415 603.383 706.422 608.631 706.682 611.339C706.942 614.046 704.371 615.408 704.371 615.408L715.053 642.926C715.053 642.926 715.4 654.269 713.43 658.419C711.46 662.568 707.791 680.94 707.791 680.94C707.791 680.94 709.328 680.603 709.241 681.616C709.155 682.629 707.416 693.726 707.416 693.726C707.416 693.726 706.901 698.127 706.046 699.656C705.191 701.184 705.105 709.133 705.105 709.133L703.741 714.891C703.741 714.891 706.988 722.091 711.945 721.072C716.902 720.054 725.875 700.84 725.875 700.84L731.606 680.093L736.049 659.604L737.331 645.719L739.382 614.984L742.375 594.661C742.375 594.661 745.68 583.723 744.478 582.298Z" fill="black"/>
<path d="M744.483 581.299C744.483 581.299 742.943 580.537 741.494 582.735C740.43 584.173 738.981 585.288 737.311 585.952C737.311 585.952 721.778 588.407 721.155 590.439L713.896 590.862C713.896 590.862 711.34 591.206 711.081 596.54C710.821 601.874 709.459 602.378 709.459 602.378C709.459 602.378 706.47 607.632 706.73 610.339C706.99 613.046 704.422 614.403 704.422 614.403L715.097 641.921C715.097 641.921 715.437 653.264 713.475 657.414C711.513 661.563 707.838 679.941 707.838 679.941C707.838 679.941 709.373 679.598 709.292 680.616C709.211 681.635 707.411 692.721 707.411 692.721C707.411 692.721 706.897 697.128 706.043 698.651C705.189 700.173 705.109 708.134 705.109 708.134L703.741 713.892C703.741 713.892 706.984 721.086 711.935 720.073C716.885 719.06 725.863 699.836 725.863 699.836L731.582 679.094L736.019 658.604L737.3 644.714L739.348 613.979L742.337 593.661C742.337 593.661 745.678 582.735 744.483 581.299Z" fill="#65617D"/>
<path opacity="0.1" d="M689.741 646.778L684.852 650.154C684.852 650.154 677.375 650.394 672.029 649.076L669.311 647.867L668.741 647.628L669.311 647.805C672.132 648.643 674.337 648.626 676.064 648.044C682.982 645.712 682.219 634.279 681.951 631.696C681.951 631.433 681.905 631.268 681.894 631.205C681.893 631.194 681.893 631.183 681.894 631.171L681.934 631.24C682.029 631.395 682.136 631.544 682.253 631.684C682.35 631.793 682.452 631.907 682.561 632.015V632.015L685.006 636.902C685.006 636.902 685.006 636.97 685.006 637.107L689.741 646.778Z" fill="black"/>
<path d="M706.241 614.171L703.871 614.844L703.534 619.651C703.534 619.651 700.747 619.229 699.987 622.502C699.228 625.775 697.874 627.315 697.874 627.315C697.874 627.315 693.225 631.193 692.974 634.483L690.118 636.256C690.118 636.256 683.442 634.734 681.923 632.036C681.923 632.036 684.967 653.802 668.741 648.488C668.741 648.488 686.909 656.414 687.754 657.514C688.599 658.615 694.173 661.814 699.245 659.117C704.316 656.419 705.413 652.274 705.413 652.274C705.413 652.274 710.313 645.431 710.479 644.428C710.644 643.424 714.477 642.232 714.477 642.232L721.741 624.686L706.241 614.171Z" fill="#65617D"/>
<path opacity="0.1" d="M766.459 589.391L768.932 578.171C768.932 578.171 770.039 581.825 771.151 582.675L774.818 585.485C774.818 585.485 778.484 587.179 779.764 587.179C781.043 587.179 787.949 588.966 788.802 589.902C789.655 590.839 793.068 590.155 793.068 590.155C793.068 590.155 795.881 591.092 798.354 591.683C800.827 592.275 802.02 596.36 801.507 598.003C801.084 599.637 801.535 601.374 802.701 602.599C803.727 603.622 804.24 606.936 804.24 606.936C805.489 607.347 806.524 608.233 807.122 609.401C807.975 611.268 807.698 615.347 807.698 615.347L795.016 633.197C795.016 633.197 795.184 640.091 794.676 641.613C794.169 643.136 796.463 669.149 796.463 669.149L799.109 713.851C799.109 713.851 795.61 716.827 794.844 717.166C794.077 717.505 793.31 701.361 793.31 700.764C793.31 700.166 773.613 671.355 773.613 671.355C773.613 671.355 770.967 667.11 770.967 666.185C770.967 665.26 768.494 656.665 768.494 656.665L764.741 640.091L766.459 589.391Z" fill="black"/>
<path d="M808.737 615.119C808.737 615.69 808.737 616.089 808.737 616.089L796.042 633.778V633.778C796.042 633.778 796.215 640.625 795.707 642.132C795.407 643.016 796.059 652.1 796.665 659.563C797.092 664.944 797.496 669.481 797.496 669.481L798.621 688.31L800.139 713.874C800.139 713.874 796.642 716.829 795.875 717.166C795.107 717.503 794.34 701.469 794.34 700.875C794.34 700.282 774.616 671.672 774.616 671.672C774.616 671.672 771.968 667.444 771.968 666.536C771.968 665.629 769.492 657.081 769.492 657.081L765.741 640.619L767.444 590.309L768.84 579.171C768.84 579.171 770.975 582.806 772.083 583.645L775.753 586.429C775.753 586.429 779.423 588.141 780.704 588.141C781.985 588.141 788.904 589.91 789.758 590.84C790.612 591.77 794.022 591.091 794.022 591.091C794.022 591.091 796.838 592.021 799.314 592.609C801.789 593.197 802.99 597.254 802.476 598.885C802.05 600.509 802.502 602.235 803.671 603.45C804.692 604.46 805.206 607.753 805.206 607.753C806.456 608.164 807.492 609.046 808.091 610.206C808.703 611.433 808.76 613.778 808.737 615.119Z" fill="#65617D"/>
<path opacity="0.1" d="M704.741 840.171C705.162 840.171 723.077 840.8 722.736 843.481C722.396 846.161 704.741 840.171 704.741 840.171Z" fill="black"/>
<path opacity="0.1" d="M708.741 845.171C708.741 845.171 720.261 847.079 717.235 848.824C714.208 850.569 708.741 845.171 708.741 845.171Z" fill="black"/>
<path opacity="0.1" d="M753.741 838.171C753.741 838.171 773.38 840.015 770.442 842.356C767.503 844.697 760.537 845.078 760.231 845.17C759.924 845.262 753.741 838.171 753.741 838.171Z" fill="black"/>
<path opacity="0.1" d="M750.741 847.171C750.741 847.171 761.407 848.839 761.734 850.764C762.061 852.688 750.741 847.171 750.741 847.171Z" fill="black"/>
<path opacity="0.1" d="M756.741 796.171C756.741 796.171 767.127 798.537 767.741 800.171L756.741 796.171Z" fill="black"/>
<path opacity="0.1" d="M718.377 804.171C718.377 804.171 712.571 805.607 718.194 808.49C723.817 811.373 718.377 804.171 718.377 804.171Z" fill="black"/>
<path opacity="0.1" d="M741.741 722.171C742.307 722.171 751.45 719.204 754.629 720.498C756.905 721.341 759.311 721.792 761.741 721.831L741.741 722.171Z" fill="black"/>
<path opacity="0.1" d="M742.741 731.788L742.65 732.623L734.77 753.135C734.77 753.135 733.498 759.347 732.397 762.874C731.702 765.272 731.149 767.709 730.741 770.171L737.738 727.171L742.741 731.788Z" fill="black"/>
<path d="M754.741 695.112L751.651 695.171H751.554L749.741 686.331L752.438 686.171L754.741 695.112Z" fill="#3F3D56"/>
<path d="M794.741 685.183L792.635 686.872L785.62 692.575C785.62 692.575 766.618 702.574 761.384 693.076C756.772 684.71 778.314 678.736 783.502 677.436C784.204 677.261 784.604 677.171 784.604 677.171L794.741 685.183Z" fill="#FBBEBE"/>
<path opacity="0.1" d="M712.741 601.171C712.741 601.171 716.731 603.046 717.644 605.607C718.557 608.169 712.741 601.171 712.741 601.171Z" fill="black"/>
<path opacity="0.1" d="M701.741 627.171C701.741 627.171 695.95 634.108 698.304 636.789C700.659 639.47 701.741 627.171 701.741 627.171Z" fill="black"/>
<path opacity="0.1" d="M798.741 605.171C798.741 605.171 793.899 605.69 793.741 610.171L798.741 605.171Z" fill="black"/>
<path opacity="0.1" d="M751.741 675.171C752.249 674.673 764.03 657.769 766.741 659.265L751.741 675.171Z" fill="black"/>
<path opacity="0.1" d="M773.741 562.6C773.746 565.941 772.932 569.231 771.373 572.175L771.225 572.146C769.959 571.875 769.3 570.377 768.329 569.444C767.107 568.263 765.279 568.004 763.785 568.799C762.287 569.711 761.425 571.404 761.559 573.171C760.917 570.44 761.122 567.543 760.497 564.806C759.872 562.07 757.992 559.305 755.414 559.259C754.278 559.259 753.011 559.668 752.205 558.826C751.722 558.32 751.637 557.519 751.262 556.897C749.422 553.878 743.816 555.404 741.528 556.954C739.239 558.504 736.587 560.987 733.741 562.312C733.82 551.109 742.836 542.092 753.88 542.172C764.924 542.251 773.814 551.397 773.736 562.6H773.741Z" fill="black"/>
<path d="M750.646 556.07C751.015 556.68 751.113 557.473 751.602 557.975C752.415 558.813 753.734 558.379 754.858 558.402C757.474 558.448 759.381 561.185 760.015 563.893C760.649 566.601 760.442 569.469 761.093 572.171C760.956 570.42 761.833 568.744 763.357 567.844C764.873 567.057 766.728 567.314 767.967 568.482C768.952 569.406 769.621 570.888 770.906 571.156C772.191 571.424 773.429 570.204 773.896 568.876C774.363 567.547 774.328 566.065 774.634 564.674C775.21 562.045 776.939 559.885 777.907 557.382C779.048 554.338 779.018 550.985 777.82 547.963C777.181 546.378 776.23 544.953 775.579 543.373C774.599 540.967 774.346 538.242 773.147 535.961C771.142 532.124 766.417 530.209 762.527 531.651C760.678 532.335 759.07 533.669 757.186 534.268C754.668 535.072 751.971 534.468 749.367 534.108C746.762 533.749 743.875 533.715 741.778 535.408C739.364 537.364 738.707 541.036 736.436 543.179C735.486 544.08 734.304 544.656 733.302 545.46C732.299 546.264 731.429 547.53 731.573 548.881C731.723 550.625 733.452 552.21 732.812 553.83C732.582 554.299 732.261 554.72 731.867 555.067C729.969 557.036 728.557 559.412 727.741 562.011C732.299 563.425 737.237 558.448 740.81 556.093C743.097 554.594 748.779 553.077 750.646 556.07Z" fill="#7C5C5C"/>
<path opacity="0.1" d="M794.741 685.43L792.557 687.171C790.633 684.037 782.741 677.769 782.741 677.769L783.085 677.444C783.813 677.264 784.227 677.171 784.227 677.171L794.741 685.43Z" fill="black"/>
<path d="M796.741 682.122C796.741 682.122 795.987 684.072 795.216 685.749C794.445 687.427 793.595 688.963 793.555 687.717C793.47 685.271 783.741 677.054 783.741 677.054L785.062 675.719L786.587 674.171L796.741 682.122Z" fill="#E7EFFD"/>
<path opacity="0.1" d="M797.586 669.176L798.741 688.171C796.017 684.055 788.544 673.51 783.741 673.85L795.378 660.835C795.862 660.311 796.309 659.755 796.716 659.171C797.154 664.599 797.586 669.176 797.586 669.176Z" fill="black"/>
<path opacity="0.1" d="M796.741 681.729C796.741 681.729 795.966 683.579 795.174 685.171C792.168 681.207 788.038 676.526 784.741 675.64L786.308 674.171L796.741 681.729Z" fill="black"/>
<path d="M805.732 613.171L808.779 615.557C808.779 615.557 813.849 615.643 814.358 619.907C814.867 624.172 819.503 626.131 819.503 626.131C819.503 626.131 822.967 629.623 822.967 631.242C822.967 632.861 825.591 635.76 825.591 636.019C825.591 636.278 828.129 641.476 827.786 642.41C827.443 643.343 830.495 647.44 829.564 648.973C828.799 650.35 828.122 651.775 827.534 653.237C827.534 653.237 823.561 660.913 821.532 662.359C819.503 663.805 810.196 675.999 810.196 675.999C810.196 675.999 800.221 687.593 800.221 691.171C800.221 691.171 790.503 674.806 784.741 675.232L795.991 662.186C795.991 662.186 797.935 660.06 798.02 658.781C798.106 657.501 803.434 651.618 805.972 651.364C805.972 651.364 806.389 647.867 805.292 647.78C804.194 647.694 803.262 644.968 803.262 644.968C803.262 644.968 795.831 636.106 795.734 630.476C795.637 624.846 805.732 613.171 805.732 613.171Z" fill="#65617D"/>
<path opacity="0.1" d="M809.741 621.171C809.741 621.171 802.387 626.307 803.962 627.957C805.537 629.607 809.741 621.171 809.741 621.171Z" fill="black"/>
<path opacity="0.1" d="M809.741 643.171C809.741 643.171 823.344 638.671 824.741 643.171H809.741Z" fill="black"/>
<path opacity="0.1" d="M727.741 868.306C727.741 868.306 720.647 872.837 717.103 872.202C713.558 871.568 709.923 873.36 709.923 873.36C707.479 875.962 704.397 877.917 700.968 879.042C695.26 880.934 687.213 880.188 682.652 878.708C680.495 878.007 680.318 877.105 681.357 875.987C686.317 876.949 697.395 878.869 700.38 877.472C704.261 875.658 709.837 871.707 709.837 871.707C709.837 871.707 717.103 870.722 718.113 870.722C718.832 870.722 724.442 868.462 727.61 867.171L727.741 868.306Z" fill="black"/>
<path opacity="0.1" d="M771.741 877.171L771.665 877.656C771.665 877.656 769.911 881.506 760.341 882.907C750.77 884.309 750.741 879.667 750.741 879.667C750.741 879.667 750.776 879.17 750.835 878.419C753.875 879.584 760.505 880.885 771.741 877.171Z" fill="black"/>
<path opacity="0.1" d="M716.741 620.171C716.741 620.171 716.741 639.184 715.179 641.061C713.616 642.938 716.741 620.171 716.741 620.171Z" fill="black"/>
<path opacity="0.1" d="M792.741 626.171L795.591 633.171C795.591 633.171 796.728 626.299 792.741 626.171Z" fill="black"/>
<g opacity="0.1">
<path d="M733.398 552.458C734.022 550.852 732.381 549.28 732.167 547.558C731.95 548.044 731.856 548.576 731.895 549.107C732.005 550.401 732.959 551.608 733.213 552.81C733.284 552.698 733.346 552.58 733.398 552.458V552.458Z" fill="black"/>
<path d="M761.766 570.866C761.154 568.173 761.333 565.319 760.709 562.621C760.085 559.923 758.161 557.103 755.543 557.057C754.388 557.057 753.094 557.473 752.279 556.629C751.782 556.121 751.701 555.312 751.314 554.694C749.442 551.66 743.745 553.197 741.411 554.752C737.944 557.063 733.114 561.933 728.631 560.836C728.417 561.35 728.22 561.876 728.053 562.413C732.623 563.846 737.575 558.802 741.157 556.416C743.468 554.867 749.188 553.33 751.06 556.364C751.43 556.982 751.528 557.785 752.019 558.293C752.834 559.143 754.157 558.704 755.283 558.727C757.907 558.773 759.819 561.546 760.455 564.291C761.09 567.035 760.882 569.941 761.535 572.68C761.493 572.066 761.571 571.45 761.766 570.866Z" fill="black"/>
<path d="M774.616 567.665C774.153 569.017 772.934 570.265 771.617 569.976C770.3 569.687 769.658 568.202 768.676 567.26C767.427 566.09 765.575 565.833 764.054 566.619C762.603 567.484 761.734 569.067 761.783 570.756C762.129 569.712 762.847 568.832 763.8 568.283C765.32 567.486 767.179 567.746 768.422 568.93C769.41 569.866 770.08 571.368 771.369 571.64C772.657 571.912 773.899 570.675 774.367 569.329C774.611 568.529 774.768 567.706 774.835 566.873C774.779 567.142 774.706 567.406 774.616 567.665V567.665Z" fill="black"/>
<path d="M778.638 556.017C777.679 558.553 775.934 560.737 775.356 563.407C775.24 563.944 775.171 564.493 775.107 565.048C775.685 562.39 777.419 560.212 778.383 557.681C778.809 556.542 779.076 555.351 779.175 554.139C779.043 554.778 778.864 555.405 778.638 556.017Z" fill="black"/>
</g>
<path d="M655.741 617.377C655.855 617.377 655.948 617.285 655.948 617.171C655.948 617.057 655.855 616.965 655.741 616.965C655.628 616.965 655.535 617.057 655.535 617.171C655.535 617.285 655.628 617.377 655.741 617.377Z" fill="#E6E8EC"/>
<path opacity="0.1" d="M729.241 883.171C756.579 883.171 778.741 880.933 778.741 878.171C778.741 875.41 756.579 873.171 729.241 873.171C701.903 873.171 679.741 875.41 679.741 878.171C679.741 880.933 701.903 883.171 729.241 883.171Z" fill="#4CBE98"/>
<path d="M546.749 547.415L396.708 644.641L494.624 821.031C495.549 822.698 497.13 823.904 498.985 824.355L587.703 845.971C590.836 846.728 594.073 845.197 595.472 842.297L639.479 750.979L687.708 686.584L573.256 551.341C566.667 543.558 555.316 541.877 546.749 547.415Z" fill="#DCDFED"/>
<path opacity="0.1" d="M689.708 687.582L689.283 688.155L661.033 725.877L660.522 726.559L641.48 751.984L603.842 830.093L602.787 832.276L597.474 843.295C596.073 846.2 592.83 847.731 589.694 846.968L500.977 825.342C499.122 824.893 497.54 823.687 496.616 822.019L488.085 806.679L486.553 803.917L424.974 692.946L424.446 692L398.708 645.643L401.818 643.626L425.393 628.354L425.938 627.999L475.583 595.83L478.716 593.801L548.741 548.424C557.307 542.875 568.668 544.554 575.259 552.343L627.469 614.058L629.764 616.808L667.659 661.584L667.866 661.83L686.92 684.339L689.318 687.175L689.708 687.582Z" fill="black"/>
<path opacity="0.1" d="M665.708 661.084L661.091 693.123L659.699 702.791L658.903 723.387L658.84 724.995L654.698 832.61C654.618 834.631 653.643 836.512 652.039 837.746C650.434 838.98 648.364 839.439 646.387 839L601.741 829.045L601.26 828.937L486.758 803.415L484.656 802.946L421.708 788.906L423.152 692.15L423.197 688.918L423.633 659.631L424.114 627.307L473.68 595.188L476.808 593.163C522.783 597.871 583.926 606.928 625.347 613.387L627.638 616.133L665.445 660.838L665.708 661.084Z" fill="black"/>
<path d="M671.708 622.936L666.268 660.673L661.28 695.231L659.887 704.871L659.09 725.455L654.882 834.613C654.802 836.633 653.827 838.514 652.221 839.747C650.614 840.98 648.543 841.439 646.564 841L601.401 830.943L486.809 805.436L421.708 790.935L423.199 691.006L423.634 661.736L424.144 627.498L424.666 592.283C435.432 591.774 453.146 592.923 474.295 595.044C521.647 599.784 586.198 609.373 628.403 615.977C654.246 620.02 671.708 622.936 671.708 622.936Z" fill="#4CBE98"/>
<path opacity="0.1" d="M685.327 683.772L661.128 695.62L537.63 756.09L423.818 662.178L400.811 643.163L397.708 645.175L423.389 691.413L421.9 791.303L486.91 805.798L495.405 821.099C496.327 822.763 497.905 823.965 499.756 824.414L588.276 845.972C591.4 846.724 594.626 845.198 596.022 842.309L601.323 831.318L646.422 841.371C648.397 841.81 650.466 841.351 652.07 840.118C653.674 838.886 654.648 837.006 654.728 834.987L658.93 725.872L687.628 687.578L687.708 686.612L685.327 683.772Z" fill="black"/>
<path d="M396.942 645.163L386.72 819.808C386.524 823.147 388.785 826.134 392.057 826.861L663.526 887.005C665.452 887.426 667.466 886.996 669.051 885.827C670.636 884.658 671.638 882.862 671.799 880.902L687.708 687.027L537.073 760.739L396.942 645.163Z" fill="#DCDFED"/>
<path opacity="0.1" d="M389.271 823.642L530.081 736.664C534.386 734.05 539.945 734.921 543.246 738.727L669.277 885.892C669.735 886.419 669.958 886.041 669.277 885.892L389.271 823.642C388.47 823.465 388.573 824.061 389.271 823.642Z" fill="black"/>
<path d="M389.441 822.987L529.174 738.738C533.735 735.989 539.616 736.913 543.11 740.927L668.34 884.671C668.765 885.161 668.828 885.868 668.496 886.426C668.164 886.984 667.512 887.266 666.877 887.128L389.894 825.742C389.29 825.612 388.828 825.127 388.728 824.518C388.628 823.91 388.91 823.303 389.441 822.987V822.987Z" fill="#E3E5F1"/>
<defs>
<linearGradient id="paint0_linear_536_748" x1="830.762" y1="884.156" x2="830.762" y2="529.17" gradientUnits="userSpaceOnUse">
<stop stop-color="#808080" stop-opacity="0.25"/>
<stop offset="0.54" stop-color="#808080" stop-opacity="0.12"/>
<stop offset="1" stop-color="#808080" stop-opacity="0.1"/>
</linearGradient>
</defs>
</svg>
